{"asset":{"version":"2.0","generator":"Blockbench 4.12.2 glTF exporter"},"scenes":[{"nodes":[13],"name":"blockbench_export"}],"scene":0,"nodes":[{"translation":[0,2.220446049250313e-16,-4.163336342344337e-17],"name":"pyramid_selection_selection","mesh":0},{"translation":[0.06250000000000003,0.1374999999999994,0.031249999999999944],"name":"pyramid_selection_selection_selection","mesh":1},{"translation":[-0.0625,-0.12343749999999976,0.011874999999999913],"name":"shell3","children":[1]},{"translation":[0.06250000000000003,0.1874999999999999,0.031249999999999944],"name":"pyramid_selection_selection_selection","mesh":2},{"translation":[-0.0625,-0.12343749999999976,0.011874999999999913],"name":"shell2","children":[3]},{"translation":[-0.003125,0.037500000000000644,-0.15750000000000006],"name":"barrel","children":[0,2,4]},{"rotation":[-0.07391278520356667,-0.07391278520356673,-0.7032331762534038,0.7032331762534045],"translation":[0,-0.012499999999999956,-0.031249999999999972],"name":"tube","mesh":3},{"name":"trigger","children":[6]},{"rotation":[0,0,-0.7071067811865475,0.7071067811865476],"translation":[0,0.428125,0.275],"name":"tube","mesh":4},{"translation":[-0.003125,-0.44062499999999993,-0.2875],"name":"mainpart","children":[8]},{"translation":[0,0.012499999999999956,-0.012500000000000011],"name":"cuboid","mesh":5},{"translation":[-0.003125,0.11125000000000018,-0.021874999999999922],"name":"lock","children":[10]},{"translation":[0.003125,0.5656249999999999,0.26249999999999996],"name":"wholething","children":[5,7,9,11]},{"children":[12]}],"bufferViews":[{"buffer":0,"byteOffset":0,"byteLength":20256,"target":34962,"byteStride":12},{"buffer":0,"byteOffset":20256,"byteLength":20256,"target":34962,"byteStride":12},{"buffer":0,"byteOffset":40512,"byteLength":13504,"target":34962,"byteStride":8},{"buffer":0,"byteOffset":54016,"byteLength":4944,"target":34963},{"buffer":0,"byteOffset":58960,"byteLength":2412,"target":34962,"byteStride":12},{"buffer":0,"byteOffset":61372,"byteLength":2412,"target":34962,"byteStride":12},{"buffer":0,"byteOffset":63784,"byteLength":1608,"target":34962,"byteStride":8},{"buffer":0,"byteOffset":65392,"byteLength":572,"target":34963},{"buffer":0,"byteOffset":65964,"byteLength":2412,"target":34962,"byteStride":12},{"buffer":0,"byteOffset":68376,"byteLength":2412,"target":34962,"byteStride":12},{"buffer":0,"byteOffset":70788,"byteLength":1608,"target":34962,"byteStride":8},{"buffer":0,"byteOffset":72396,"byteLength":572,"target":34963},{"buffer":0,"byteOffset":72968,"byteLength":480,"target":34962,"byteStride":12},{"buffer":0,"byteOffset":73448,"byteLength":480,"target":34962,"byteStride":12},{"buffer":0,"byteOffset":73928,"byteLength":320,"target":34962,"byteStride":8},{"buffer":0,"byteOffset":74248,"byteLength":108,"target":34963},{"buffer":0,"byteOffset":74356,"byteLength":14640,"target":34962,"byteStride":12},{"buffer":0,"byteOffset":88996,"byteLength":14640,"target":34962,"byteStride":12},{"buffer":0,"byteOffset":103636,"byteLength":9760,"target":34962,"byteStride":8},{"buffer":0,"byteOffset":113396,"byteLength":3528,"target":34963},{"buffer":0,"byteOffset":116924,"byteLength":1488,"target":34962,"byteStride":12},{"buffer":0,"byteOffset":118412,"byteLength":1488,"target":34962,"byteStride":12},{"buffer":0,"byteOffset":119900,"byteLength":992,"target":34962,"byteStride":8},{"buffer":0,"byteOffset":120892,"byteLength":360,"target":34963},{"buffer":0,"byteOffset":121252,"byteLength":20},{"buffer":0,"byteOffset":121272,"byteLength":80},{"buffer":0,"byteOffset":121352,"byteLength":56},{"buffer":0,"byteOffset":121408,"byteLength":224},{"buffer":0,"byteOffset":121632,"byteLength":56},{"buffer":0,"byteOffset":121688,"byteLength":168},{"buffer":0,"byteOffset":121856,"byteLength":32},{"buffer":0,"byteOffset":121888,"byteLength":128},{"buffer":0,"byteOffset":122016,"byteLength":268},{"buffer":0,"byteOffset":122284,"byteLength":1072},{"buffer":0,"byteOffset":123356,"byteLength":280},{"buffer":0,"byteOffset":123636,"byteLength":1120},{"buffer":0,"byteOffset":124756,"byteLength":32},{"buffer":0,"byteOffset":124788,"byteLength":96},{"buffer":0,"byteOffset":124884,"byteLength":104},{"buffer":0,"byteOffset":124988,"byteLength":416},{"buffer":0,"byteOffset":125404,"byteLength":112},{"buffer":0,"byteOffset":125516,"byteLength":336},{"buffer":0,"byteOffset":125852,"byteLength":72},{"buffer":0,"byteOffset":125924,"byteLength":288},{"buffer":0,"byteOffset":126212,"byteLength":60},{"buffer":0,"byteOffset":126272,"byteLength":180},{"buffer":0,"byteOffset":126452,"byteLength":32},{"buffer":0,"byteOffset":126484,"byteLength":128},{"buffer":0,"byteOffset":126612,"byteLength":20},{"buffer":0,"byteOffset":126632,"byteLength":80},{"buffer":0,"byteOffset":126712,"byteLength":68},{"buffer":0,"byteOffset":126780,"byteLength":272},{"buffer":0,"byteOffset":127052,"byteLength":32},{"buffer":0,"byteOffset":127084,"byteLength":96},{"buffer":0,"byteOffset":127180,"byteLength":52},{"buffer":0,"byteOffset":127232,"byteLength":208},{"buffer":0,"byteOffset":127440,"byteLength":112},{"buffer":0,"byteOffset":127552,"byteLength":336},{"buffer":0,"byteOffset":127888,"byteLength":340},{"buffer":0,"byteOffset":128228,"byteLength":1360}],"buffers":[{"byteLength":129588,"uri":"data:application/octet-stream;base64,"}],"accessors":[{"bufferView":0,"componentType":5126,"count":1688,"max":[0.03750000149011612,0.09375,0.0949999988079071],"min":[-0.03750000149011612,-0.04062499850988388,-1.0299999713897705],"type":"VEC3"},{"bufferView":1,"componentType":5126,"count":1688,"max":[1,1,1],"min":[-1,-1,-1],"type":"VEC3"},{"bufferView":2,"componentType":5126,"count":1688,"max":[63.5,68.75],"min":[0,0],"type":"VEC2"},{"bufferView":3,"componentType":5123,"count":2472,"max":[1687],"min":[0],"type":"SCALAR"},{"bufferView":4,"componentType":5126,"count":201,"max":[0.02067713811993599,0.01598963886499405,0.058125000447034836],"min":[-0.02067713811993599,-0.02536463923752308,-0.049687501043081284],"type":"VEC3"},{"bufferView":5,"componentType":5126,"count":201,"max":[1,1,1],"min":[-1,-1,-1],"type":"VEC3"},{"bufferView":6,"componentType":5126,"count":201,"max":[0.0625,0.0625],"min":[0,0],"type":"VEC2"},{"bufferView":7,"componentType":5123,"count":285,"max":[200],"min":[0],"type":"SCALAR"},{"bufferView":8,"componentType":5126,"count":201,"max":[0.02067713811993599,0.01598963886499405,0.058125000447034836],"min":[-0.02067713811993599,-0.02536463923752308,-0.049687501043081284],"type":"VEC3"},{"bufferView":9,"componentType":5126,"count":201,"max":[1,1,1],"min":[-1,-1,-1],"type":"VEC3"},{"bufferView":10,"componentType":5126,"count":201,"max":[0.0625,0.0625],"min":[0,0],"type":"VEC2"},{"bufferView":11,"componentType":5123,"count":285,"max":[200],"min":[0],"type":"SCALAR"},{"bufferView":12,"componentType":5126,"count":40,"max":[0.018028859049081802,4.7704895589362195e-17,0.03573441877961159],"min":[-0.0063191745430231094,-0.0062500000931322575,0.02091369777917862],"type":"VEC3"},{"bufferView":13,"componentType":5126,"count":40,"max":[0.6790403127670288,1,0.9148241877555847],"min":[-0.43971577286720276,-1,-0.9956757426261902],"type":"VEC3"},{"bufferView":14,"componentType":5126,"count":40,"max":[0.26794999837875366,0.5],"min":[0,0],"type":"VEC2"},{"bufferView":15,"componentType":5123,"count":54,"max":[39],"min":[0],"type":"SCALAR"},{"bufferView":16,"componentType":5126,"count":1220,"max":[0.12001415342092514,0.056472297757864,0.5598863959312439],"min":[-0.13437500596046448,-0.056472297757864,-0.16315202414989471],"type":"VEC3"},{"bufferView":17,"componentType":5126,"count":1220,"max":[1,1,1],"min":[-1,-1,-1],"type":"VEC3"},{"bufferView":18,"componentType":5126,"count":1220,"max":[67.86547088623047,53.035640716552734],"min":[-0.13886655867099762,0],"type":"VEC2"},{"bufferView":19,"componentType":5123,"count":1764,"max":[1219],"min":[0],"type":"SCALAR"},{"bufferView":20,"componentType":5126,"count":124,"max":[0.011137500405311584,-0.0043624998070299625,0.07363750040531158],"min":[-0.011137500405311584,-0.019212499260902405,0.006812499836087227],"type":"VEC3"},{"bufferView":21,"componentType":5126,"count":124,"max":[1,1,1],"min":[-1,-1,-1],"type":"VEC3"},{"bufferView":22,"componentType":5126,"count":124,"max":[1,1],"min":[0,0],"type":"VEC2"},{"bufferView":23,"componentType":5123,"count":180,"max":[123],"min":[0],"type":"SCALAR"},{"bufferView":24,"componentType":5126,"count":5,"max":[0.2083333283662796],"min":[0],"type":"SCALAR"},{"bufferView":25,"componentType":5126,"count":5,"max":[0,0,0,1],"min":[-0.13052618503570557,0,0,0.9914448857307434],"type":"VEC4"},{"bufferView":26,"componentType":5126,"count":14,"max":[0.7916666865348816],"min":[0],"type":"SCALAR"},{"bufferView":27,"componentType":5126,"count":14,"max":[0.09961991012096405,0.016347404569387436,0,1],"min":[-0.03956233710050583,0,-0.09972354769706726,0.9898807406425476],"type":"VEC4"},{"bufferView":28,"componentType":5126,"count":14,"max":[0.7916666865348816],"min":[0],"type":"SCALAR"},{"bufferView":29,"componentType":5126,"count":14,"max":[0.0031250000465661287,0.565625011920929,0.35624998807907104],"min":[0.0031250000465661287,0.565625011920929,0.26249998807907104],"type":"VEC3"},{"bufferView":30,"componentType":5126,"count":8,"max":[4.5],"min":[0.75],"type":"SCALAR"},{"bufferView":31,"componentType":5126,"count":8,"max":[0,0,0,1],"min":[-0.3826834261417389,0,0,0.9238795042037964],"type":"VEC4"},{"bufferView":32,"componentType":5126,"count":67,"max":[4.541666507720947],"min":[0],"type":"SCALAR"},{"bufferView":33,"componentType":5126,"count":67,"max":[0,0.2672383785247803,0,1],"min":[0,0,0,0.9636304378509521],"type":"VEC4"},{"bufferView":34,"componentType":5126,"count":70,"max":[5],"min":[0],"type":"SCALAR"},{"bufferView":35,"componentType":5126,"count":70,"max":[0.1643984019756317,0.3810780346393585,0.016162186861038208,1],"min":[-0.02181488461792469,0,-0.08031570911407471,0.9091350436210632],"type":"VEC4"},{"bufferView":36,"componentType":5126,"count":8,"max":[4.625],"min":[0],"type":"SCALAR"},{"bufferView":37,"componentType":5126,"count":8,"max":[0.02187499962747097,0.565625011920929,0.3062500059604645],"min":[0.0031250000465661287,0.528124988079071,0.26249998807907104],"type":"VEC3"},{"bufferView":38,"componentType":5126,"count":26,"max":[2.4166667461395264],"min":[0],"type":"SCALAR"},{"bufferView":39,"componentType":5126,"count":26,"max":[0.08636990189552307,0,0.10075691342353821,1],"min":[-0.08676386624574661,-0.5804662704467773,-0.0027770111337304115,0.8052744269371033],"type":"VEC4"},{"bufferView":40,"componentType":5126,"count":28,"max":[2.5],"min":[0],"type":"SCALAR"},{"bufferView":41,"componentType":5126,"count":28,"max":[-0.0625,-0.12343750149011612,0.3868750035762787],"min":[-0.375,-0.3734374940395355,0.011874999850988388],"type":"VEC3"},{"bufferView":42,"componentType":5126,"count":18,"max":[3.2083332538604736],"min":[0],"type":"SCALAR"},{"bufferView":43,"componentType":5126,"count":18,"max":[0.2457362562417984,0,0.10075691342353821,1],"min":[-0.04226166382431984,-0.5804662704467773,0,0.8052744269371033],"type":"VEC4"},{"bufferView":44,"componentType":5126,"count":15,"max":[3.2916667461395264],"min":[0],"type":"SCALAR"},{"bufferView":45,"componentType":5126,"count":15,"max":[-0.0625,-0.12343750149011612,0.3868750035762787],"min":[-0.375,-0.3734374940395355,0.011874999850988388],"type":"VEC3"},{"bufferView":46,"componentType":5126,"count":8,"max":[3.9166667461395264],"min":[0.75],"type":"SCALAR"},{"bufferView":47,"componentType":5126,"count":8,"max":[0,0,0,1],"min":[-0.3826834261417389,0,0,0.9238795042037964],"type":"VEC4"},{"bufferView":48,"componentType":5126,"count":5,"max":[3.9583332538604736],"min":[0.5416666865348816],"type":"SCALAR"},{"bufferView":49,"componentType":5126,"count":5,"max":[0,0.2672383785247803,0,1],"min":[0,0,0,0.9636304378509521],"type":"VEC4"},{"bufferView":50,"componentType":5126,"count":17,"max":[4.5],"min":[0],"type":"SCALAR"},{"bufferView":51,"componentType":5126,"count":17,"max":[0.1643984019756317,0.3810780346393585,0.016162186861038208,1],"min":[-0.02181488461792469,0,-0.07559061795473099,0.9091350436210632],"type":"VEC4"},{"bufferView":52,"componentType":5126,"count":8,"max":[4.041666507720947],"min":[0],"type":"SCALAR"},{"bufferView":53,"componentType":5126,"count":8,"max":[0.02187499962747097,0.565625011920929,0.3062500059604645],"min":[0.0031250000465661287,0.528124988079071,0.26249998807907104],"type":"VEC3"},{"bufferView":54,"componentType":5126,"count":13,"max":[2.4166667461395264],"min":[1.0833333730697632],"type":"SCALAR"},{"bufferView":55,"componentType":5126,"count":13,"max":[0.08636990189552307,0,0.10075691342353821,1],"min":[-0.08676386624574661,-0.5804662704467773,-0.0027770111337304115,0.8052744269371033],"type":"VEC4"},{"bufferView":56,"componentType":5126,"count":28,"max":[2.5],"min":[0],"type":"SCALAR"},{"bufferView":57,"componentType":5126,"count":28,"max":[-0.0625,-0.12343750149011612,0.3868750035762787],"min":[-0.375,-0.3734374940395355,0.011874999850988388],"type":"VEC3"},{"bufferView":58,"componentType":5126,"count":85,"max":[5],"min":[0],"type":"SCALAR"},{"bufferView":59,"componentType":5126,"count":85,"max":[0.0030913655646145344,0.00015265049296431243,0.00005144961687619798,1],"min":[-0.008736568503081799,-0.000032928281143540516,-0.017972948029637337,0.9998053908348083],"type":"VEC4"}],"materials":[{"pbrMetallicRoughness":{"metallicFactor":0,"roughnessFactor":1},"alphaMode":"MASK","alphaCutoff":0.05}],"meshes":[{"primitives":[{"mode":4,"attributes":{"POSITION":0,"NORMAL":1,"TEXCOORD_0":2},"indices":3,"material":0}]},{"primitives":[{"mode":4,"attributes":{"POSITION":4,"NORMAL":5,"TEXCOORD_0":6},"indices":7,"material":0}]},{"primitives":[{"mode":4,"attributes":{"POSITION":8,"NORMAL":9,"TEXCOORD_0":10},"indices":11,"material":0}]},{"primitives":[{"mode":4,"attributes":{"POSITION":12,"NORMAL":13,"TEXCOORD_0":14},"indices":15,"material":0}]},{"primitives":[{"mode":4,"attributes":{"POSITION":16,"NORMAL":17,"TEXCOORD_0":18},"indices":19,"material":0}]},{"primitives":[{"mode":4,"attributes":{"POSITION":20,"NORMAL":21,"TEXCOORD_0":22},"indices":23,"material":0}]}],"animations":[{"name":"shoot","samplers":[{"input":24,"output":25,"interpolation":"LINEAR"},{"input":26,"output":27,"interpolation":"LINEAR"},{"input":28,"output":29,"interpolation":"LINEAR"}],"channels":[{"sampler":0,"target":{"node":7,"path":"rotation"}},{"sampler":1,"target":{"node":12,"path":"rotation"}},{"sampler":2,"target":{"node":12,"path":"translation"}}]},{"name":"reload","samplers":[{"input":30,"output":31,"interpolation":"LINEAR"},{"input":32,"output":33,"interpolation":"LINEAR"},{"input":34,"output":35,"interpolation":"LINEAR"},{"input":36,"output":37,"interpolation":"LINEAR"},{"input":38,"output":39,"interpolation":"LINEAR"},{"input":40,"output":41,"interpolation":"LINEAR"},{"input":42,"output":43,"interpolation":"STEP"},{"input":44,"output":45,"interpolation":"LINEAR"}],"channels":[{"sampler":0,"target":{"node":5,"path":"rotation"}},{"sampler":1,"target":{"node":11,"path":"rotation"}},{"sampler":2,"target":{"node":12,"path":"rotation"}},{"sampler":3,"target":{"node":12,"path":"translation"}},{"sampler":4,"target":{"node":4,"path":"rotation"}},{"sampler":5,"target":{"node":4,"path":"translation"}},{"sampler":6,"target":{"node":2,"path":"rotation"}},{"sampler":7,"target":{"node":2,"path":"translation"}}]},{"name":"reloadonebullet","samplers":[{"input":46,"output":47,"interpolation":"LINEAR"},{"input":48,"output":49,"interpolation":"LINEAR"},{"input":50,"output":51,"interpolation":"LINEAR"},{"input":52,"output":53,"interpolation":"LINEAR"},{"input":54,"output":55,"interpolation":"LINEAR"},{"input":56,"output":57,"interpolation":"LINEAR"}],"channels":[{"sampler":0,"target":{"node":5,"path":"rotation"}},{"sampler":1,"target":{"node":11,"path":"rotation"}},{"sampler":2,"target":{"node":12,"path":"rotation"}},{"sampler":3,"target":{"node":12,"path":"translation"}},{"sampler":4,"target":{"node":4,"path":"rotation"}},{"sampler":5,"target":{"node":4,"path":"translation"}}]},{"name":"idle","samplers":[{"input":58,"output":59,"interpolation":"LINEAR"}],"channels":[{"sampler":0,"target":{"node":12,"path":"rotation"}}]}]}